<svg width="32" height="32" viewBox="0 0 32 32" fill="none" xmlns="http://www.w3.org/2000/svg">
  <rect width="32" height="32" fill="#0A0B0D"/>
  <!-- Wolf head silhouette with pointed ears -->
  <path d="M10 4L8 10C5.5 12 4 15 4 18.5C4 24.2 9.5 28.5 16 28.5C22.5 28.5 28 24.2 28 18.5C28 15 26.5 12 24 10L22 4L18 10.5L16 9.5L14 10.5Z" fill="#2d0808"/>
  <!-- Inner ear shading -->
  <path d="M10 4L11.5 9L8 10Z" fill="#1a0404"/>
  <path d="M22 4L20.5 9L24 10Z" fill="#1a0404"/>
  <!-- Eye glow -->
  <ellipse cx="12.5" cy="18" rx="3.2" ry="2.6" fill="#ff3300" opacity="0.3"/>
  <ellipse cx="19.5" cy="18" rx="3.2" ry="2.6" fill="#ff3300" opacity="0.3"/>
  <!-- Eyes -->
  <ellipse cx="12.5" cy="18" rx="2" ry="2.4" fill="#ff3300"/>
  <ellipse cx="19.5" cy="18" rx="2" ry="2.4" fill="#ff3300"/>
  <!-- Slit pupils -->
  <ellipse cx="12.5" cy="18" rx="0.7" ry="2.1" fill="#4a0000"/>
  <ellipse cx="19.5" cy="18" rx="0.7" ry="2.1" fill="#4a0000"/>
  <!-- Nose -->
  <ellipse cx="16" cy="22.5" rx="2.5" ry="1.2" fill="#1a0404"/>
  <!-- Fangs -->
  <rect x="13.5" y="23.5" width="1.4" height="2.8" rx="0.7" fill="#d0c8b8"/>
  <rect x="17.1" y="23.5" width="1.4" height="2.8" rx="0.7" fill="#d0c8b8"/>
</svg>
